<?xml version="1.0" encoding="UTF-8"?>
<svg width="8px" height="9px" viewBox="0 0 8 9" version="1.1" xmlns="http://www.w3.org/2000/svg" xmlns:xlink="http://www.w3.org/1999/xlink">
    <!-- Generator: Sketch 55.2 (78181) - https://sketchapp.com -->
    <title>Rectangle</title>
    <desc>Created with Sketch.</desc>
    <g id="마크업가이드" stroke="none" stroke-width="1" fill="none" fill-rule="evenodd" stroke-opacity="0.3">
        <g id="02_03_입력창_텍스트입력" transform="translate(-52.000000, -303.000000)" fill="#FFFFFF" fill-rule="nonzero" stroke="#979797">
            <g id="#말풍선" transform="translate(14.000000, 284.000000)">
                <g id="01" transform="translate(38.000000, 18.000000)">
                    <g id="Group">
                        <path d="M0.941821842,1.4704744 C0.984755424,1.53634438 1.02855561,1.60418695 1.07315449,1.67395258 C1.57064362,2.45217042 2.06783869,3.31205949 2.53219455,4.23021357 C3.53006085,6.20325863 4.23839129,8.16806261 4.52904507,10.0397501 L4.53339525,10.1560882 C4.51117246,10.4357061 4.5,10.71715 4.5,11 L4.5,51 C4.5,56.7989899 9.20101013,61.5 15,61.5 L238,61.5 C243.79899,61.5 248.5,56.7989899 248.5,51 L248.5,11 C248.5,5.20101013 243.79899,0.5 238,0.5 L15,0.5 C12.2815934,0.5 9.72715161,1.53668722 7.79074516,3.36604737 L7.48722599,3.65278773 L7.15096548,3.40525433 C5.50710068,2.19514662 3.45910371,1.48503932 0.941821842,1.4704744 Z" id="Combined-Shape"></path>
                    </g>
                </g>
            </g>
        </g>
    </g>
</svg>